<?xml version="1.0" encoding="utf-8"?>
<svg version="1.1" xmlns:xlink="http://www.w3.org/1999/xlink" width="140px" height="155px" xmlns="http://www.w3.org/2000/svg">
  <g transform="matrix(1 0 0 1 -706 -614 )">
    <path d="M 706 614  L 846 614  L 846 769  L 706 769  L 706 614  " fill-rule="nonzero" fill="#cccccc" stroke="none" />
    <path d="M 716 624  L 836 624  L 836 759  L 716 759  L 716 624  " fill-rule="nonzero" fill="#ffffff" stroke="none" />
    <path d="M 789.3 658.25  C 783.42 658.25  778.8 653.63  778.8 647.75  C 778.8 641.87  783.42 637.25  789.3 637.25  C 795.18 637.25  799.8 641.87  799.8 647.75  C 799.8 653.63  795.18 658.25  789.3 658.25  " fill-rule="nonzero" fill="#cccccc" stroke="none" />
    <path d="M 720 756  L 720 685.6  L 748.25 653.6  L 787.8 679.2  L 810.4 672.8  L 833 679.2  L 833 756  L 720 756  " fill-rule="nonzero" fill="#169bd5" stroke="none" />
  </g>
</svg>